<?xml version="1.0" standalone="no"?><!DOCTYPE svg PUBLIC "-//W3C//DTD SVG 1.1//EN" "http://www.w3.org/Graphics/SVG/1.1/DTD/svg11.dtd"><svg class="icon" viewBox="0 0 1024 1024" version="1.1" xmlns="http://www.w3.org/2000/svg"><path d="M279 435L126.2 200.2c95.2-118.4 238-183.6 384-184.2 84.6-0.6 171 21 249.6 66.4 86.8 50.4 152.8 122.8 194.8 206L544 266.8c-116.2-6.8-226.8 58.6-265 168.2z m65.8 77c0 92.4 74.8 167.2 167.2 167.2s167.2-74.8 167.2-167.2-74.8-167.2-167.2-167.2-167.2 74.6-167.2 167.2z m629.8-178.4L695.2 348c75.8 88.6 77 216.4 13.2 314.4L484.2 1007.2c93 5 188.8-15.4 275.6-65.8 214.8-124 301.8-384 214.8-607.8zM283.4 607.2L96.8 240.2C45.8 318.2 16 411.8 16 512c0 248 181.6 453.4 419 489.8l127.4-249.6c-115.2 21.6-226.4-41.6-279-145z" /></svg>